<svg width="141" height="21" viewBox="0 0 141 21" fill="none" xmlns="http://www.w3.org/2000/svg">
<path d="M13.08 11.76C13.584 11.88 14.016 12.168 14.328 12.576C14.616 12.96 14.808 13.44 14.808 13.968V19.32C13.728 19.752 12.384 20.256 10.92 20.256C10.68 20.256 10.44 20.232 10.2 20.208C10.152 20.208 3.50404 19.536 3.50404 10.464C3.50404 4.94401 6.50404 0.456008 10.224 0.456008C11.88 0.456008 13.152 1.20001 14.088 2.23201C15.072 3.31201 15.72 4.68001 15.912 6.14401C15.936 6.40801 15.96 6.67201 15.96 6.93601C15.96 7.63201 15.84 8.37601 15.48 9.07201C15.48 9.07201 18.312 8.85601 18.312 5.47201C18.312 5.47201 18.24 3.74401 16.872 2.49601C15.72 1.46401 13.68 0.168009 10.752 0.0240083C10.584 0.0240083 10.416 8.58307e-06 10.248 8.58307e-06C5.04004 8.58307e-06 0.624044 3.93601 0.072044 9.28801C0.024044 9.67201 4.39882e-05 10.08 4.39882e-05 10.464C4.39882e-05 16.224 4.58404 20.904 10.224 20.904C11.208 20.904 12.192 20.76 13.08 20.496C13.848 20.256 14.616 20.16 15.408 20.16C15.984 20.16 16.584 20.208 17.184 20.352L18.312 20.616V13.968C18.312 12.936 19.008 12 20.04 11.76H13.08ZM34.5332 19.8C34.2212 19.416 34.0292 18.936 34.0292 18.408V16.176C34.0292 14.952 33.5492 13.848 32.7332 13.056C32.2292 12.528 31.5812 12.144 30.8372 11.928C30.6692 11.88 30.5012 11.856 30.3332 11.808C32.2052 11.232 35.0852 9.81601 35.0852 6.19201C35.0852 4.53601 34.4372 3.02401 33.3332 1.94401C32.2532 0.864009 30.7412 0.192009 29.0852 0.192009H20.5172C21.0212 0.312009 21.4532 0.600009 21.7652 1.00801C22.0772 1.39201 22.2452 1.89601 22.2452 2.40001V18.408C22.2452 19.44 21.5252 20.376 20.5172 20.616H27.4772C26.9732 20.496 26.5412 20.208 26.2292 19.8C25.9412 19.416 25.7492 18.936 25.7492 18.408V16.392C25.7492 15.264 26.1812 14.232 26.8772 13.44C27.2372 13.056 27.7172 12.84 28.2212 12.84C28.6532 12.84 29.1092 13.008 29.4452 13.344C29.9972 13.92 30.5252 14.808 30.5252 16.176V17.904C30.5252 19.392 31.7492 20.616 33.2612 20.616H35.7572C35.2532 20.496 34.8212 20.208 34.5332 19.8ZM25.7492 0.624009H26.8292C29.9012 0.624009 31.5812 3.12001 31.5812 6.19201C31.5812 7.72801 31.0772 9.24001 29.9732 10.128C27.6212 12 26.6372 12.624 25.7492 14.304V0.624009ZM45.0758 0.624009C46.8278 0.624009 48.6278 1.92001 49.4198 3.62401L48.5558 0.192009H36.2438C36.7478 0.312009 37.1798 0.600009 37.4918 1.00801C37.8038 1.39201 37.9718 1.89601 37.9718 2.40001V18.408C37.9718 19.464 37.2518 20.376 36.2438 20.616H48.5558L49.4198 17.184C48.6278 18.912 46.8278 20.184 45.0758 20.184H41.4758V15.72C41.4758 14.832 41.8838 13.992 42.6038 13.488C43.2998 12.96 44.0678 12.576 44.7398 12.336C44.9558 12.264 45.1958 12.216 45.4118 12.216C46.2758 12.216 47.0678 12.816 47.2598 13.704V9.52801C47.0198 10.584 46.2278 11.4 45.1958 11.712C44.0918 12.048 42.6518 12.696 41.4758 13.872V0.624009H45.0758ZM58.7399 0.624009C60.4919 0.624009 62.2919 1.92001 63.0839 3.62401L62.2199 0.192009H49.9079C50.4119 0.312009 50.8439 0.600009 51.1559 1.00801C51.4679 1.39201 51.6359 1.89601 51.6359 2.40001V18.408C51.6359 19.464 50.9159 20.376 49.9079 20.616H62.2199L63.0839 17.184C62.2919 18.912 60.4919 20.184 58.7399 20.184H55.1399V15.72C55.1399 14.832 55.5479 13.992 56.2679 13.488C56.9639 12.96 57.7319 12.576 58.4039 12.336C58.6199 12.264 58.8599 12.216 59.0759 12.216C59.9399 12.216 60.7319 12.816 60.9239 13.704V9.52801C60.6839 10.584 59.8919 11.4 58.8599 11.712C57.7559 12.048 56.3159 12.696 55.1399 13.872V0.624009H58.7399ZM77.8519 2.11201C77.8519 1.22401 78.4279 0.456008 79.2679 0.192009H75.9799C76.8199 0.456008 77.3959 1.22401 77.3959 2.11201V18.336L68.1799 0.192009H63.5719C64.0759 0.336009 64.4599 0.696008 64.7239 1.12801L64.7959 1.27201C64.9159 1.53601 64.9879 1.82401 64.9879 2.11201V18.696C64.9879 19.584 64.4119 20.352 63.5719 20.616H66.8359C65.9959 20.352 65.4199 19.584 65.4199 18.696V2.49601L74.6359 20.616H79.2679C78.4279 20.352 77.8519 19.584 77.8519 18.696V2.11201ZM93.6638 0.192009L89.1038 14.328L84.3278 0.192009H79.7438C80.1758 0.312009 80.5358 0.576008 80.7758 0.912008C80.8718 1.03201 80.9438 1.15201 80.9918 1.29601L81.1358 1.68001C81.1598 1.82401 81.1838 1.96801 81.1838 2.11201V18.696C81.1838 19.584 80.6078 20.352 79.7438 20.616H83.0318C82.5998 20.496 82.2638 20.232 81.9998 19.896C81.7598 19.56 81.6158 19.152 81.6158 18.696V3.16801L87.3998 20.616L93.6638 1.63201V18.408C93.6638 19.464 92.9678 20.376 91.9358 20.616H98.8958C98.3918 20.496 97.9598 20.208 97.6478 19.8C97.3598 19.416 97.1678 18.936 97.1678 18.408V2.40001C97.1678 1.36801 97.8878 0.456008 98.8958 0.192009H93.6638ZM99.3844 0.192009C100.416 0.456008 101.112 1.36801 101.112 2.40001V18.408C101.112 19.464 100.416 20.376 99.3844 20.616H106.344C105.336 20.376 104.616 19.464 104.616 18.408V2.40001C104.616 1.36801 105.336 0.456008 106.344 0.192009H99.3844ZM121.094 2.11201C121.094 1.22401 121.67 0.456008 122.51 0.192009H119.222C120.062 0.456008 120.638 1.22401 120.638 2.11201V18.336L111.422 0.192009H106.814C107.318 0.336009 107.702 0.696008 107.966 1.12801L108.038 1.27201C108.158 1.53601 108.23 1.82401 108.23 2.11201V18.696C108.23 19.584 107.654 20.352 106.814 20.616H110.078C109.238 20.352 108.662 19.584 108.662 18.696V2.49601L117.878 20.616H122.51C121.67 20.352 121.094 19.584 121.094 18.696V2.11201ZM133.234 0.624009C132.298 0.336009 131.314 0.192009 130.282 0.192009H122.986C123.514 0.312009 123.922 0.600009 124.234 1.00801C124.546 1.39201 124.714 1.89601 124.714 2.42401V18.408C124.714 19.464 124.018 20.376 122.986 20.616H130.282C131.314 20.616 132.298 20.472 133.234 20.184C137.434 18.912 140.482 15.024 140.482 10.416C140.482 5.78401 137.434 1.89601 133.234 0.624009ZM128.218 20.184V0.624009H130.282C133.978 0.624009 136.978 5.01601 136.978 10.416C136.978 15.816 133.978 20.184 130.282 20.184H128.218Z" fill="#1E1E1E"/>
</svg>
