<svg width="24" height="20" viewBox="0 0 24 20" fill="none" xmlns="http://www.w3.org/2000/svg">
<path fill-rule="evenodd" clip-rule="evenodd" d="M1.5 10.0001C1.5 9.8343 1.57902 9.67533 1.71967 9.55812C1.86032 9.44091 2.05109 9.37506 2.25 9.37506H19.9395L15.219 5.44256C15.0782 5.3252 14.9991 5.16603 14.9991 5.00006C14.9991 4.83409 15.0782 4.67492 15.219 4.55756C15.3598 4.4402 15.5508 4.37427 15.75 4.37427C15.9492 4.37427 16.1402 4.4402 16.281 4.55756L22.281 9.55756C22.3508 9.61561 22.4063 9.68458 22.4441 9.76052C22.4819 9.83645 22.5013 9.91785 22.5013 10.0001C22.5013 10.0823 22.4819 10.1637 22.4441 10.2396C22.4063 10.3155 22.3508 10.3845 22.281 10.4426L16.281 15.4426C16.1402 15.5599 15.9492 15.6258 15.75 15.6258C15.5508 15.6258 15.3598 15.5599 15.219 15.4426C15.0782 15.3252 14.9991 15.166 14.9991 15.0001C14.9991 14.8341 15.0782 14.6749 15.219 14.5576L19.9395 10.6251H2.25C2.05109 10.6251 1.86032 10.5592 1.71967 10.442C1.57902 10.3248 1.5 10.1658 1.5 10.0001Z" fill="#1E1E1E"/>
</svg>
